<svg xmlns="http://www.w3.org/2000/svg" width="189" height="47" fill="#306"><path d="M10.015 2.675l1.664-.03 14.54.014c2.88.03 5.628.704 8.088 2.27 4.673 2.973 4.977 8.56 3.067 11.778-1.404 2.356-3.66 3.533-6.222 4.2-.926.244-1.88.373-2.937.575.97.187 1.837.33 2.706.546 2.735.675 5.2 1.8 7.176 3.893 3.545 3.75 3.7 11.534-2.387 14.723-2.344 1.235-4.86 1.896-7.48 1.953l-17.058.115a27.92 27.92 0 0 0-1.157.03v-.575c.318-.014.622-.03.94-.03 1.953-.03 2.735-.704 3-2.63.058-.36.058-.718.058-1.077V6.955c0-.546-.043-1.106-.145-1.637-.174-1.005-.738-1.724-1.794-1.896-.68-.115-1.4-.115-2.084-.172.014-.187.014-.388.014-.575zm9.998 19.118v10.83l.03 6.75c.03 1.695.84 2.657 2.517 2.73 1.707.072 3.444.086 5.122-.158 3.24-.46 5.296-2.37 6.048-5.56.695-2.858.695-5.745-.03-8.6-.752-2.96-2.633-4.87-5.672-5.602-2.633-.646-5.28-.302-8.015-.402zm0-.56h4.384c.723-.014 1.447-.043 2.156-.158 3.27-.575 5.093-2.34 5.73-5.587.434-2.212.434-4.424-.014-6.622-.55-2.63-1.997-4.48-4.673-5.228-1.75-.488-3.53-.46-5.3-.316-1.317.115-1.953.8-2.2 2.097-.1.517-.087 1.05-.087 1.566V20.33a15.74 15.74 0 0 1 .015.905zM180 33.1c-.3 1-.477 2.063-.897 3.015-1.634 3.78-4.7 5.858-8.6 6.8-3.803.923-7.5.418-11.122-.923-1.215-.447-2.458-.85-3.717-1.14-1.3-.303-2.126.26-2.502 1.53-.058.188-.188.332-.3.505-.072-.014-.13-.043-.202-.058-.03-.202-.058-.404-.058-.606V29.167c0-.23.115-.476.173-.707l.26.043c.115.923.188 1.847.332 2.756 1.07 6.738 6.957 11.686 13.754 11.6 3.963-.058 7.217-2.972 7.753-6.9.376-2.8-.015-5.38-2.04-7.502-1.446-1.515-3.297-2.395-5.206-3.16l-6.162-2.438c-2.27-.98-4.382-2.207-6.016-4.126s-2.184-4.184-2.054-6.636c.362-6.723 5.713-9.912 11.064-10.07 2.864-.087 5.57.678 8.26 1.5.622.188 1.258.332 1.894.4 1.027.087 1.36-.23 1.606-1.24.057-.23.188-.447.274-.664l.26.087-.015 13.028c0 .058-.173.115-.36.245-.13-1.053-.174-2.034-.362-2.986-.824-4.227-2.835-7.603-7.1-9.16-2.415-.88-4.86-.837-7.26.173-4.658 1.962-5.96 8.786-1.36 12.06 1.72 1.226 3.674 1.977 5.612 2.77 2.545 1.024 5.12 1.976 7.578 3.174 2.806 1.37 5.004 3.42 6.002 6.492.203.62.318 1.255.478 1.875L180 33.1zM87.792 2.7a11.41 11.41 0 0 1 .7-.029l14.142.03c4.657.086 8.885 1.478 12.456 4.607 3.086 2.713 4.943 6.157 5.757 10.16 1.03 5.066.757 10.046-1.443 14.782-2.67 5.74-7.3 8.97-13.427 10.1-1.63.287-3.314.373-4.97.388l-12.5.014c-.3 0-.757.158-.77-.488.657-.072 1.286-.1 1.914-.215 1.2-.23 1.814-.933 1.957-2.138.057-.502.07-1.005.07-1.507V7.096c0-.46-.028-.904-.057-1.363-.114-1.478-.943-2.296-2.428-2.4-.33-.03-.67.014-1-.043-.186-.03-.343-.2-.514-.3.03-.115.07-.2.114-.287zm9.785 19.992v13.993c0 1.005.014 2 .072 3.014.07 1.335.7 2.167 2 2.296a19.71 19.71 0 0 0 4.115-.014c2.828-.3 5.242-1.507 7.1-3.717 2.314-2.755 3.228-6.07 3.714-9.53.43-3.014.5-6.042.3-9.085-.186-2.827-.586-5.612-1.586-8.267-1.47-3.9-3.97-6.774-8.17-7.664-1.672-.36-3.443-.388-5.172-.36-1.443.014-2.214.962-2.314 2.4-.043.574-.057 1.148-.057 1.722v15.2zM40.185 2.705l.672-.043 15.162.03c3.376.057 6.537 1.005 9.24 3.145a8.74 8.74 0 0 1 3.004 9.263c-.6 2.154-2.017 3.648-3.934 4.696-1.66.905-3.447 1.364-5.292 1.608l-1.102.144 2.918.66C65 23.4 67.5 26.344 67.805 30.666c.186 2.57.13 5.155.186 7.74.014.646.043 1.292.143 1.924.186 1.178.916 1.795 2.103 1.838.258.014.515 0 .773 0 .043.086.072.158.114.244-.157.115-.315.316-.458.316-1.516-.072-3.06-.014-4.55-.3-2.03-.388-3.204-1.896-3.6-3.85-.343-1.766-.472-3.6-.544-5.4-.1-2.24.057-4.495-.486-6.706-.7-2.858-2.303-4.308-5.25-4.48-2.103-.115-4.234-.03-6.423-.03-.014.187-.043.474-.043.747v15.868c0 2.83.73 3.576 3.547 3.6.23 0 .472.03.9.043-.215.258-.3.416-.443.503-.114.057-.272.03-.415.03H40.63c-.315 0-.744.115-.715-.574.4 0 .744.014 1.1 0 1.845-.043 2.746-.933 2.86-2.772.014-.258.014-.53.014-.8V6.38c-.03-2.125-.873-2.987-3-3.088-.343-.014-.815.13-.73-.6zm9.57 18.554c2.632-.086 5.164.23 7.653-.43 2.86-.747 4.506-2.628 5.078-5.5.4-2.04.4-4.093 0-6.132-.6-3.044-2.346-5.04-5.435-5.63-1.23-.23-2.503-.273-3.762-.287-2.804 0-3.52.76-3.533 3.547V21.26zm100.52 7.12c.187.216.375.33.403.5.058.245.03.518.03.792v13.08H121.54c-.043-.058-.072-.115-.115-.173.173-.115.33-.288.518-.317.518-.086 1.05-.072 1.57-.173 1.1-.216 1.67-.965 1.83-2.044.072-.56.13-1.152.13-1.713V7.086c0-.36-.014-.72-.057-1.08-.26-2.06-1.023-2.72-3.1-2.793-.26-.014-.518 0-.82 0l.03-.576h28.015V15.25c-.072.03-.16.043-.23.072-.072-.202-.2-.403-.23-.62-.158-1.238-.202-2.5-.475-3.7-.993-4.3-3.786-6.84-8.163-7.5-2.303-.36-4.635-.46-6.953-.158-1.223.158-1.87.864-2.03 2.073-.057.446-.13.907-.13 1.353V20.6a5.54 5.54 0 0 0 .043.633l4.232-.014c.7-.014 1.382-.13 2.06-.274 2.678-.62 4.232-2.462 4.535-5.356l.216-2.3c.187.13.374.187.417.302.072.144.043.33.043.5v15.55c0 .23-.043.446-.057.677-.087.014-.173.03-.26.058-.072-.187-.173-.374-.202-.576-.144-.965-.173-1.958-.403-2.908-.72-2.937-2.62-4.65-5.614-4.94-1.613-.158-3.24-.03-4.953-.03a9.72 9.72 0 0 0-.028.69v15.766c0 .547.057 1.1.13 1.64.173 1.195.835 2 2.03 2.088 3.182.216 6.377.288 9.473-.734 3.814-1.267 5.743-4.147 6.55-7.9.316-1.584.475-3.24.748-5.097zM86.4 42.47c-.216.086-.432.26-.648.26-1.008.03-2.015.014-3.023.014-3.196 0-6.378 0-9.574-.014-.302 0-.792.173-.705-.5.662-.072 1.324-.115 1.987-.216 1.08-.187 1.67-.878 1.843-1.93.086-.562.144-1.137.144-1.713V7a10.34 10.34 0 0 0-.115-1.497c-.216-1.483-.993-2.188-2.5-2.275-.432-.03-.85 0-1.324 0-.03-.245-.058-.4-.086-.6h13.9c.043.058.072.13.115.187-.158.115-.302.317-.475.346-.33.072-.662.03-1.008.043-1.555.1-2.42.936-2.548 2.5-.03.4-.014.763-.03 1.152V38.67c.014 2.678.734 3.426 3.383 3.498.187 0 .374.043.547.058.072.086.086.173.115.245z"/></svg>