<svg xmlns="http://www.w3.org/2000/svg" width="172" height="54" fill="none"><g clip-path="url(#A)"><path d="M13.314 23.753c.695-.065 1.272-.216 1.727-.455s.817-.538 1.075-.896a3.14 3.14 0 0 0 .527-1.161c.1-.416.116-.83.078-1.242a2.29 2.29 0 0 0-.98-1.738c-.587-.42-1.285-.595-2.096-.52l-5.46.5a.91.91 0 0 0-.819.792l-.543 4.195c-.075.58.406 1.08.985 1.03l5.506-.504zM12.11 34.03c.67-.062 1.25-.218 1.742-.473s.894-.566 1.212-.935a3.47 3.47 0 0 0 .693-1.234c.147-.457.197-.93.153-1.416-.072-.808-.398-1.45-.98-1.92s-1.344-.665-2.295-.58l-5.7.522a.91.91 0 0 0-.819.792l-.602 4.73c-.035.275.055.55.246.75s.462.3.736.276l5.615-.514zM.973 37.593l2.763-21.885a.91.91 0 0 1 .819-.795l9.836-.9c.95-.088 1.815-.018 2.595.203a6.07 6.07 0 0 1 2.034.99 5.07 5.07 0 0 1 1.388 1.613c.35.636.56 1.335.628 2.104.072.8-.005 1.55-.23 2.286s-.556 1.398-.993 1.987-.964 1.096-1.58 1.517-1.27.694-1.957.826a4.14 4.14 0 0 1 1.453.556 4.79 4.79 0 0 1 1.158 1.003c.328.395.59.84.788 1.338s.318 1.003.364 1.517c.075.84 0 1.686-.225 2.538s-.633 1.644-1.223 2.367-1.367 1.335-2.34 1.834-2.16.816-3.575.943l-10.723.982C1.38 38.67.9 38.17.973 37.593zm43.07-2.403c-1.574.143-2.975.078-4.203-.195s-2.285-.725-3.172-1.348-1.58-1.403-2.086-2.34-.812-2.003-.92-3.187c-.026-.28-.034-.584-.028-.912s.02-.6.052-.78L35.4 12.81a.91.91 0 0 1 .819-.795l2.28-.208a.91.91 0 0 1 .982 1.026l-1.68 13.12-.04.53a4.74 4.74 0 0 0 .013.738 4.99 4.99 0 0 0 .538 1.865c.297.57.695 1.047 1.2 1.434s1.106.678 1.812.87 1.5.25 2.38.17c1.923-.174 3.332-.86 4.23-2.055s1.468-2.738 1.716-4.634l1.698-13.518a.91.91 0 0 1 .819-.795l2.28-.208a.91.91 0 0 1 .985 1.023L53.77 24.592c-.194 1.45-.5 2.8-.913 4.024s-1.006 2.315-1.773 3.24-1.73 1.678-2.88 2.252-2.538.935-4.16 1.083zm32.3-2.953c-1.088.1-2.153.09-3.2-.023s-2.008-.327-2.913-.63a11.41 11.41 0 0 1-2.45-1.148c-.483-.304-.915-.636-1.295-.998-.33-.312-.37-.823-.103-1.192l1.236-1.72c.32-.444.944-.494 1.355-.133.78.686 1.706 1.226 2.776 1.62 1.424.527 2.95.714 4.57.566.742-.068 1.368-.23 1.882-.488s.925-.564 1.23-.922.522-.738.65-1.148a3.04 3.04 0 0 0 .14-1.174c-.057-.63-.4-1.133-.995-1.51s-1.344-.712-2.2-.995l-2.844-.83c-1.03-.267-1.983-.62-2.864-1.057a7.63 7.63 0 0 1-2.272-1.691c-.636-.694-1.003-1.598-1.104-2.715-.085-.93.036-1.85.362-2.76s.84-1.735 1.543-2.48 1.577-1.37 2.616-1.876 2.22-.818 3.54-.94c1.807-.164 3.523.01 5.147.525 1.324.42 2.47 1.04 3.433 1.855.365.307.42.855.137 1.24l-1.254 1.696c-.313.426-.913.48-1.323.148a7.49 7.49 0 0 0-2.616-1.369c-1.295-.387-2.557-.522-3.784-.4a4.56 4.56 0 0 0-1.507.384c-.45.205-.83.455-1.14.753s-.55.636-.713 1.013-.23.764-.194 1.16c.052.582.38 1.05.985 1.403s1.342.668 2.205.94l2.843.83a15.13 15.13 0 0 1 2.867 1.091c.882.447 1.64 1.02 2.277 1.722s1.003 1.613 1.104 2.728a7.44 7.44 0 0 1-.326 2.98 7.27 7.27 0 0 1-1.497 2.613c-.688.777-1.564 1.43-2.624 1.96-1.062.532-2.288.86-3.678.987zm25.04-3.826l2.272-17.784c.075-.58-.406-1.078-.985-1.026l-4.772.436a.91.91 0 0 1-.985-1.016l.217-1.844a.91.91 0 0 1 .82-.803l16.252-1.486c.273-.026.543.074.735.27a.92.92 0 0 1 .252.745l-.217 1.844c-.05.43-.394.764-.822.803l-5.558.51a.91.91 0 0 0-.819.792L105.4 28.44a.91.91 0 0 1-.822.795l-2.207.203c-.58.052-1.06-.447-.985-1.026zm23.365-2.135L127.514 4.4c.054-.425.395-.756.82-.795l2.2-.203a.91.91 0 0 1 .985 1.026l-2.24 17.784c-.072.577.406 1.075.985 1.024l7.96-.727a.91.91 0 0 1 .985 1.023l-.232 1.847c-.054.425-.395.756-.82.795l-12.43 1.135c-.58.052-1.057-.444-.985-1.024zm26.985-2.468l2.76-21.885a.91.91 0 0 1 .822-.792l14.034-1.283a.91.91 0 0 1 .985 1.016l-.217 1.844a.91.91 0 0 1-.82.803l-10.355.946c-.424.04-.764.368-.82.792l-.542 4.198a.91.91 0 0 0 .984 1.026l9.314-.852a.91.91 0 0 1 .983 1.026l-.233 1.844c-.054.425-.395.756-.82.795l-10.117.925c-.425.04-.766.37-.82.795l-.602 4.728c-.075.58.406 1.078.985 1.026l9.557-.873a.91.91 0 0 1 .985 1.024l-.236 1.847a.91.91 0 0 1-.819.795l-14.024 1.28a.91.91 0 0 1-.985-1.023zM.17 52.36l-.165-1.88c-.044-.52.34-.98.856-1.023L124.293 38.61a.94.94 0 0 1 .719.247l9.06 8.37c.184.17.427.26.677.25s.486-.12.654-.307l9.174-10.092a.95.95 0 0 1 .613-.304l25.623-2.25c.52-.047.974.338 1.018.857l.166 1.88c.044.52-.34.98-.856 1.023L146.98 40.41a.95.95 0 0 0-.613.304l-10.733 11.804c-.168.186-.403.296-.653.308a.94.94 0 0 1-.678-.248l-10.617-9.81c-.194-.18-.455-.268-.718-.244L1.187 53.218a.94.94 0 0 1-1.018-.857z" fill="#306"/></g><defs><clipPath id="A"><path fill="#fff" d="M0 0h172v53.4H0z"/></clipPath></defs></svg>