<svg xmlns="http://www.w3.org/2000/svg" width="184" height="72" fill="none"><path d="M75.035 16.13c0 2.382.046 2.723 1.366 2.836l.728.07c.135.09.092.5-.046.566l-2.982-.067-3.164.067c-.136-.067-.183-.454 0-.566l.82-.07c1.3-.113 1.412-.455 1.412-2.836V5.986c0-.703 0-.726-.684-.726h-1.252c-.978 0-2.23.045-2.8.567-.547.5-.774.997-1.023 1.565-.18.137-.502.023-.592-.16.364-1.02.705-2.473.866-3.38.07-.045.363-.066.433 0 .136.727.887.704 1.935.704h9.22c1.228 0 1.434-.046 1.775-.635.114-.046.364-.023.41.068-.25.93-.41 2.768-.342 3.45-.1.18-.478.18-.59.045-.07-.567-.227-1.407-.57-1.656-.524-.386-1.387-.567-2.64-.567h-1.616c-.684 0-.66.023-.66.77l-.003 10.098zm14.532-3.925c-1.093 0-1.14.046-1.14.726v3.2c0 2.383.114 2.7 1.39 2.837l.66.068c.135.09.09.5-.046.567l-2.89-.07-2.64.07c-.137-.07-.183-.43-.047-.567l.387-.068c1.276-.227 1.32-.455 1.32-2.837V7.96c0-2.38-.158-2.768-1.343-2.86l-.59-.045c-.137-.1-.09-.5.045-.568l2.868.068 2.64-.068c.137.068.182.477.046.568l-.434.045c-1.32.137-1.365.477-1.365 2.86v2.6c0 .704.046.726 1.14.726h6.5c1.09 0 1.138-.023 1.138-.726v-2.6c0-2.382-.046-2.722-1.388-2.86l-.433-.045c-.135-.1-.09-.5.046-.568l2.753.068 2.685-.068c.137.068.183.477.046.568l-.478.045c-1.32.137-1.368.477-1.368 2.86v8.17c0 2.383.047 2.677 1.367 2.837l.548.068c.137.09.1.5-.046.567l-2.754-.07-2.753.07c-.137-.07-.18-.43-.046-.567l.433-.068c1.39-.227 1.39-.455 1.39-2.837v-3.2c0-.68-.047-.726-1.138-.726h-6.512zm17.13-4.244c0-2.362-.047-2.7-1.39-2.86l-.366-.047c-.135-.1-.09-.5.046-.566l2.687.068h4.28l3.072-.068c.135.385.273 2.02.362 3.017-.09.137-.452.182-.568.046-.34-1.068-.546-1.862-1.73-2.157-.48-.112-1.207-.135-2.208-.135h-1.638c-.684 0-.684.045-.684.907v4.537c0 .636.07.636.752.636h1.32c.956 0 1.662-.045 1.936-.135s.433-.23.547-.795l.183-.93c.112-.135.5-.135.59.023l-.1 2.3.1 2.18c-.1.16-.478.16-.59.023l-.206-.884c-.09-.41-.25-.75-.705-.863-.32-.09-.865-.114-1.753-.114h-1.32c-.683 0-.753.023-.753.614v3.2c0 1.204.07 1.975.435 2.36.27.272.75.522 2.754.522 1.752 0 2.412-.1 2.914-.34.41-.23 1.023-1.02 1.616-2.202.16-.112.48-.045.57.16-.16.796-.73 2.542-1.025 3.155l-6.1-.068h-2.048l-3.096.068c-.136-.068-.183-.43-.046-.566l.752-.07c1.296-.112 1.41-.455 1.41-2.836l-.001-8.168zM14.584 36.036c-1.093 0-1.138.045-1.138.727v3.2c0 2.383.112 2.7 1.387 2.837l.66.067c.135.09.09.5-.046.568l-2.89-.07-2.64.07c-.137-.07-.182-.43-.046-.568l.387-.067c1.275-.23 1.32-.455 1.32-2.837v-8.17c0-2.382-.158-2.768-1.342-2.86l-.59-.044c-.137-.09-.092-.5.045-.567l2.868.067 2.64-.067c.137.067.183.477.046.567l-.434.045c-1.32.137-1.364.477-1.364 2.86v2.6c0 .703.045.726 1.138.726h6.5c1.092 0 1.138-.023 1.138-.726v-2.6c0-2.382-.046-2.72-1.388-2.86l-.434-.045c-.135-.09-.09-.5.046-.567l2.753.067 2.686-.067c.137.067.183.477.046.567l-.48.045c-1.32.137-1.366.477-1.366 2.86v8.17c0 2.383.046 2.678 1.366 2.837l.546.067c.137.09.09.5-.045.568l-2.756-.07-2.753.07c-.137-.07-.183-.43-.046-.568l.434-.067c1.387-.23 1.387-.455 1.387-2.837v-3.2c0-.68-.046-.726-1.138-.726h-6.5v-.001zm27.927-1.952c0-1.407-.047-4.016-.433-4.698-.16-.272-.57-.43-1.138-.476l-.57-.046c-.137-.16-.09-.454.045-.544l2.595.07 2.4-.07c.182.113.16.41.045.544l-.546.046c-.568.045-1 .25-1.138.546-.32.748-.32 3.357-.32 4.628v2.565c0 1.975-.32 4.06-1.594 5.423-.978 1.066-2.662 1.657-4.347 1.657-1.572 0-3.14-.295-4.257-1.25-1.207-.998-1.775-2.656-1.775-5.356V31.77c0-2.36-.046-2.745-1.365-2.86l-.57-.046c-.137-.09-.09-.476.047-.544l2.82.07 2.8-.07c.137.07.18.454.046.544l-.546.046c-1.32.114-1.366.5-1.366 2.86v4.9c0 3.655 1.138 6.06 4.62 6.06 3.3 0 4.552-2.587 4.552-6.036l-.001-2.61zm9.93.703c0 .612.068.612.752.612h1.548c.932 0 1.66-.045 1.933-.135.25-.09.433-.205.57-.795l.206-.907c.112-.136.5-.136.59 0l-.09 2.292.09 2.202c-.09.135-.433.135-.59 0l-.23-.887c-.114-.408-.296-.727-.728-.86-.318-.09-.887-.114-1.752-.114h-1.548c-.684 0-.752.023-.752.613v3.153c0 2.383.046 2.723 1.39 2.837l.774.068c.137.1.09.498-.045.567l-3.03-.07-2.845.07c-.137-.07-.183-.43-.046-.567l.57-.068c1.32-.16 1.366-.455 1.366-2.837v-8.17c0-2.382-.046-2.7-1.366-2.86l-.364-.045c-.135-.09-.09-.5.045-.567l2.64.067h4.188l3.074-.067.07 2.996c-.07.135-.388.203-.546.067-.182-1.02-.456-1.86-1.593-2.155-.502-.137-1.252-.137-2.21-.137h-1.387c-.684 0-.684.046-.684.908l.001 4.79zm13.677 0c0 .612.068.612.75.612h1.55c.932 0 1.66-.045 1.935-.135.25-.09.432-.205.57-.795l.205-.907c.112-.136.5-.136.59 0l-.092 2.292.092 2.202c-.092.135-.432.135-.59 0l-.23-.887c-.115-.408-.296-.727-.73-.86-.318-.09-.887-.114-1.752-.114h-1.55c-.683 0-.75.023-.75.613v3.153c0 2.383.046 2.723 1.39 2.837l.773.068c.137.1.09.498-.045.567l-3.028-.07-2.845.07c-.137-.07-.183-.43-.046-.567l.57-.068c1.32-.16 1.366-.455 1.366-2.837v-8.17c0-2.382-.046-2.7-1.366-2.86l-.364-.045c-.136-.09-.09-.5.045-.567l2.64.067h4.19l3.072-.067.068 2.996c-.068.135-.388.203-.547.067-.182-1.02-.456-1.86-1.594-2.155-.5-.137-1.253-.137-2.208-.137H66.8c-.682 0-.682.046-.682.908v4.79zm11.93-2.95c0-2.405-.046-2.79-1.39-2.905l-.57-.045c-.137-.1-.1-.5.045-.567l2.868.068 2.823-.068c.137.068.18.477.045.567l-.568.045c-1.343.113-1.39.5-1.39 2.905v8.08c0 2.405.046 2.723 1.39 2.882l.568.067c.137.09.092.5-.045.567l-2.823-.067-2.868.067c-.135-.067-.18-.43-.045-.567l.57-.067c1.343-.16 1.39-.477 1.39-2.882v-8.08zm21.8 7.672l.068 3.97c-.045.135-.182.25-.433.25-.273-.386-.934-1.18-2.914-3.427l-5.28-6-2.64-3.065h-.045c-.092.272-.115.794-.115 1.476v4.947c0 1.066.023 4.016.41 4.697.137.25.592.386 1.162.43l.705.07c.135.182.114.454-.046.567l-2.663-.068-2.368.068c-.158-.112-.183-.43-.045-.567l.614-.07c.524-.068.887-.203 1.002-.455.318-.815.295-3.583.295-4.674v-6.56c0-.634-.023-1.11-.5-1.634-.32-.318-.865-.477-1.41-.544l-.388-.046c-.137-.135-.137-.476.045-.566l2.573.068c.364 0 .752-.023 1.046-.068.456 1.156 3.14 4.153 3.892 4.992l2.208 2.474 3.757 4.107h.045c.1-.113.1-.478.1-.955v-4.856c0-1.066-.023-4.016-.456-4.697-.135-.204-.5-.34-1.41-.454l-.388-.046c-.158-.135-.135-.5.046-.566l2.686.068 2.345-.068c.18.112.18.43.046.566l-.32.046c-.728.114-1.184.294-1.275.477-.388.815-.34 3.63-.34 4.674l.001 5.426zm18.465 1.542c0 .907.137 1.453.545 1.61.035.04.052.1.047.14s-.03.1-.07.13c-.273 0-.68.1-1.115.203-1.205.32-2.845.592-4.075.592-2.707 0-5.19-.748-6.942-2.52-1.365-1.362-2.093-3.154-2.093-5.152 0-1.93.637-3.88 2.047-5.378 1.526-1.59 3.78-2.655 7.217-2.655 1.298 0 2.502.25 2.9.34.43.09 1.137.25 1.41.204 0 .75.137 1.93.342 3.3-.068.18-.48.204-.615.07-.636-2.45-2.345-3.223-4.666-3.223-4.416 0-6.352 3.134-6.352 6.537 0 4.356 2.253 7.783 6.83 7.783 1.4 0 2.253-.295 2.503-.68.112-.16.228-.568.228-1.293v-.908c0-1.907-.07-2.042-1.48-2.202l-1.003-.112c-.18-.09-.158-.5 0-.567.662.046 1.913.067 3.255.067.888 0 1.662-.022 2.413-.067.16.1.182.43.023.567l-.365.045c-.957.114-.978.75-.978 1.907v1.27h.003zm12.036-1.09c0 2.382.046 2.723 1.367 2.836l.728.07c.135.09.1.5-.046.567l-2.982-.068c-.91 0-1.706.023-3.164.068-.136-.068-.18-.454 0-.567l.82-.07c1.296-.112 1.41-.455 1.41-2.836V29.818c0-.703 0-.726-.683-.726h-1.252c-.98 0-2.23.045-2.8.567-.546.5-.773 1-1.024 1.565-.183.137-.5.023-.592-.158.366-1.02.707-2.473.866-3.38.068-.046.364-.067.432 0 .137.726.89.703 1.936.703h9.218c1.23 0 1.434-.046 1.775-.636.113-.045.364-.022.4.07-.252.93-.4 2.768-.343 3.45-.09.183-.476.183-.59.045-.068-.567-.227-1.406-.57-1.656-.524-.386-1.388-.567-2.64-.567h-1.616c-.682 0-.66.023-.66.77v10.098zm8.792-3.926c0-4.537 3.413-8.01 8.104-8.01 5.258 0 7.896 3.79 7.896 7.785 0 4.583-3.503 7.92-7.896 7.92-5.055-.001-8.104-3.61-8.104-7.693v-.001zm13.726.476c0-3.745-1.663-7.784-6-7.784-2.367 0-5.44 1.61-5.44 6.58 0 3.36 1.64 7.716 6.123 7.716 2.73 0 5.327-2.042 5.327-6.513zm19.53 2.997c0 .68 0 3.38.067 3.97-.045.135-.183.25-.433.25-.273-.386-.933-1.18-2.913-3.427l-5.28-5.99-2.64-3.065h-.045c-.09.272-.114.795-.114 1.476v4.947c0 1.066.023 4.016.41 4.697.138.25.593.386 1.162.43l.706.07c.136.182.112.454-.047.567-.887-.043-1.774-.066-2.662-.068-.957 0-1.572.023-2.368.068-.158-.112-.183-.43-.045-.567l.614-.07c.524-.068.887-.203 1.002-.455.32-.815.296-3.583.296-4.674v-6.56c0-.634-.022-1.11-.5-1.634-.32-.318-.865-.477-1.41-.544l-.387-.046c-.137-.135-.137-.476.045-.566.957.068 2.162.068 2.573.068a7.41 7.41 0 0 0 1.046-.068c.456 1.156 3.14 4.153 3.892 4.992l2.21 2.474 3.755 4.107h.045c.09-.113.09-.478.09-.955v-4.856c0-1.066-.022-4.016-.456-4.697-.136-.204-.5-.34-1.4-.454l-.387-.046c-.16-.135-.136-.5.046-.566 1.046.045 1.82.068 2.686.068a35.97 35.97 0 0 0 2.344-.068c.18.112.18.43.046.566l-.32.046c-.73.114-1.185.294-1.275.477-.387.815-.34 3.63-.34 4.674l.001 5.426zM65.967 63.793c0 2.382.046 2.678 1.502 2.836l.617.07c.135.113.09.498-.047.566l-2.96-.068a58.63 58.63 0 0 0-2.777.068c-.137-.068-.18-.43-.046-.566l.48-.07c1.32-.18 1.366-.454 1.366-2.836V55.42c0-1.928-.046-2.314-1.07-2.428l-.82-.1c-.16-.137-.137-.477.045-.567 1.207-.16 2.618-.18 4.508-.18s3.3.25 4.37.906c1.046.658 1.82 1.84 1.82 3.405 0 2.087-1.297 3.13-2.277 3.61-1 .476-2.21.68-3.14.68-.16-.07-.16-.41-.023-.454 2.46-.454 3.347-1.84 3.347-3.812 0-2.2-1.3-3.63-3.666-3.63-1.205 0-1.228.092-1.228.818l-.002 10.12zm10.252-3.926c0-4.537 3.415-8.01 8.104-8.01 5.26 0 7.898 3.79 7.898 7.784 0 4.582-3.505 7.92-7.898 7.92-5.053.001-8.104-3.606-8.104-7.692zm13.726.477c0-3.746-1.662-7.785-6-7.785-2.366 0-5.44 1.613-5.44 6.58 0 3.36 1.64 7.715 6.123 7.715 2.73.002 5.327-2.04 5.327-6.51zm9.784 7.216c-1.912 0-3.12-.6-3.552-.84-.273-.5-.568-2.11-.614-3.176.113-.158.456-.204.546-.067.34 1.156 1.275 3.38 3.915 3.38 1.91 0 2.845-1.248 2.845-2.6 0-1-.205-2.11-1.867-3.178l-2.162-1.407c-1.14-.75-2.46-2.043-2.46-3.903 0-2.157 1.684-3.903 4.645-3.903a8.72 8.72 0 0 1 2.116.295c.297.1.616.135.797.135.206.544.412 1.816.412 2.768-.09.137-.456.205-.57.07-.296-1.09-.9-2.565-3.095-2.565-2.23 0-2.7 1.476-2.7 2.52 0 1.315 1.093 2.27 1.936 2.79l1.82 1.134c1.434.884 2.845 2.202 2.845 4.358 0 2.5-1.9 4.2-4.848 4.2zm16.172-3.767c0 2.382.046 2.723 1.366 2.836l.728.07c.135.1.09.498-.045.566l-2.983-.068c-.91 0-1.707.023-3.164.068-.136-.068-.182-.453 0-.566l.82-.07c1.298-.112 1.412-.454 1.412-2.836V53.65c0-.704 0-.727-.684-.727h-1.25c-.978 0-2.23.045-2.8.568-.545.498-.773.998-1.024 1.564-.18.137-.5.023-.592-.158.365-1.02.705-2.473.866-3.38.068-.046.364-.068.432 0 .135.727.887.704 1.934.704h9.22c1.23 0 1.434-.046 1.775-.636.113-.046.365-.022.4.067-.25.93-.4 2.768-.34 3.45-.092.18-.48.18-.592.045-.067-.566-.227-1.407-.568-1.655-.525-.386-1.39-.568-2.64-.568h-1.617c-.683 0-.66.024-.66.773v10.097z" fill="#306"/></svg>