<svg fill="none" height="36" width="199" xmlns="http://www.w3.org/2000/svg" xmlns:xlink="http://www.w3.org/1999/xlink"><mask id="a" height="28" maskUnits="userSpaceOnUse" width="24" x="40" y="7"><path d="m40.07 7.665h23.587v26.417h-23.587z" fill="#fff" fill-rule="evenodd"/></mask><mask id="b" height="28" maskUnits="userSpaceOnUse" width="25" x="63" y="7"><path d="m63.652 7.665h23.588v26.417h-23.588z" fill="#fff" fill-rule="evenodd"/></mask><mask id="c" height="34" maskUnits="userSpaceOnUse" width="24" x="87" y="1"><path d="m87.238 1.353h23.587v32.73h-23.587z" fill="#fff" fill-rule="evenodd"/></mask><mask id="d" height="28" maskUnits="userSpaceOnUse" width="27" x="110" y="7"><path d="m110.828 7.664h25.946v26.417h-25.946z" fill="#fff" fill-rule="evenodd"/></mask><mask id="e" height="34" maskUnits="userSpaceOnUse" width="27" x="136" y="1"><path d="m136.773 1.353h25.946v32.73h-25.946z" fill="#fff" fill-rule="evenodd"/></mask><mask id="f" height="34" maskUnits="userSpaceOnUse" width="11" x="162" y="1"><path d="m162.72 1.353h9.435v32.73h-9.435z" fill="#fff" fill-rule="evenodd"/></mask><mask id="g" height="28" maskUnits="userSpaceOnUse" width="26" x="172" y="7"><path d="m172.156 7.665h25.002v26.417h-25.002z" fill="#fff" fill-rule="evenodd"/></mask><g fill="#306"><path d="m27.328 1.353-6.84 17.767-6.84-17.767h-11.548v32.027h8.255v-21.04l8.245 21.04h3.774l8.02-21.04v21.274h8.255v-32.261z"/><g mask="url(#a)"><path d="m55.87 27.537v-2.104c-.708-1.17-2.595-1.636-4.246-1.636-1.887 0-3.774.935-3.774 2.805s1.887 2.805 3.774 2.805c1.65-.234 3.302-.935 4.246-1.87zm0 5.845v-2.338c-1.415 1.637-4.246 2.805-7.312 2.805-3.538 0-8.02-2.572-8.02-7.715 0-5.61 4.482-7.48 8.02-7.48 3.066 0 5.897.935 7.312 2.805v-2.339c0-2.104-1.65-3.507-4.717-3.507-2.36 0-4.717.935-6.604 2.572l-2.83-5.143c3.066-2.572 7.076-3.507 10.614-3.507 5.66 0 10.85 2.104 10.85 9.35v14.495h-7.313z"/></g><g mask="url(#b)"><path d="m64.363 30.342 3.066-5.377c1.65 1.637 5.425 3.04 8.255 3.04 2.123 0 3.066-.7 3.066-1.637 0-2.805-13.68 0-13.68-9.35 0-4.208 3.538-7.715 10.142-7.715 4 0 7.312 1.17 9.906 3.04l-2.83 5.143c-1.65-.935-4.246-2.104-7.076-2.104-1.65 0-2.83.7-2.83 1.636 0 2.572 13.68 0 13.68 9.35 0 4.442-4 7.48-10.614 7.48-4.482.234-8.727-1.17-11.086-3.507z"/></g><g mask="url(#c)"><path d="m103.276 33.38v-13.56c0-2.805-1.415-3.74-3.774-3.74-2.123 0-3.538 1.17-4.48 2.338v14.962h-7.548v-32.027h7.548v11.69c1.415-1.636 4.246-3.507 8.02-3.507 5.19 0 7.548 3.04 7.548 7.247v16.6h-7.312z"/></g><g mask="url(#d)"><path d="m127.574 27.537v-2.104c-.708-1.17-2.595-1.636-4.246-1.636-1.887 0-3.774.935-3.774 2.805s1.887 2.805 3.774 2.805c1.65-.234 3.538-.935 4.246-1.87zm0 5.845v-2.338c-1.416 1.637-4.246 2.805-7.312 2.805-3.538 0-8.02-2.572-8.02-7.715 0-5.61 4.482-7.48 8.02-7.48 3.066 0 5.896.935 7.312 2.805v-2.339c0-2.104-1.65-3.507-4.718-3.507-2.358 0-4.717.935-6.604 2.572l-2.83-5.143c3.066-2.572 7.076-3.507 10.614-3.507 5.66 0 10.85 2.104 10.85 9.35v14.495h-7.312z"/></g><g mask="url(#e)"><path d="m149.27 27.537c3.066 0 5.19-2.104 5.19-5.61s-2.123-5.61-5.19-5.61c-1.65 0-3.538.935-4.48 2.104v7.014c.943 1.17 3.066 2.104 4.48 2.104zm-11.793 5.845v-32.029h7.547v11.69c1.65-2.104 4.246-3.273 6.84-3.273 5.896 0 10.378 4.676 10.378 12.157 0 7.95-4.482 12.157-10.378 12.157-2.595 0-4.954-1.17-6.84-3.273v2.805z"/></g><g mask="url(#f)"><path d="m163.66 1.353h7.548v32.027h-7.548z"/></g><g mask="url(#g)"><path d="m185.126 15.614c-3.302 0-4.48 1.87-4.717 3.507h9.67c-.236-1.636-1.415-3.507-4.953-3.507zm-12.5 6.078c0-6.78 5.19-12.157 12.5-12.157 6.84 0 12.03 5.143 12.03 12.858v1.636h-16.746c.47 2.104 2.594 3.74 5.896 3.74 1.652 0 4.482-.7 5.66-1.87l3.302 4.91c-2.358 2.104-6.132 3.04-9.906 3.04-7.076.234-12.737-4.442-12.737-12.157z"/></g></g></svg>