<svg xmlns="http://www.w3.org/2000/svg" width="231" height="32" fill="none"><path d="M17.167 3.61c0-2.5-2.363-3.113-4.23-3.113v.374c1.12 0 2 .374 2 1.245 0 .498-.373 1.245-1.493 1.245-.87 0-2.737-.498-4.105-.996-1.617-.623-3.1-1.12-4.354-1.12-2.488 0-4.23 1.868-4.23 3.985 0 1.868 1.368 2.5 1.866 2.74l.124-.25c-.25-.25-.622-.498-.622-1.245 0-.498.498-1.37 1.742-1.37 1.12 0 2.612.498 4.603 1.12 1.742.498 3.608.872 4.603.996v3.86l-1.866 1.62v.125l1.866 1.62v5.354c-.995.623-2.115.747-3.1.747-1.866 0-3.483-.498-4.852-1.992l5.1-2.5V7.47L3.98 10.2c.498-1.62 1.866-2.74 3.234-3.486L7.09 6.35C3.36 7.347 0 10.833 0 15.067c0 4.98 4.105 8.716 8.708 8.716 4.976 0 8.2-3.985 8.2-8.094h-.25c-.746 1.62-1.866 3.113-3.234 3.86v-5.105l2-1.62V12.7l-2-1.62v-3.86c1.866 0 3.732-1.245 3.732-3.61zM6.344 17.308l-1.493.747c-.87-1.12-1.368-2.615-1.368-4.732 0-.872 0-1.868.25-2.615l2.612-1.12v7.72zm13.186 2.864l-1.617 1.245.25.25.746-.622 2.737 2.5 3.732-2.5-.124-.25-.995.623-1.244-1.245v-8.467l.995-.747 2.115 1.743v7.596c0 4.732-.995 5.48-3.1 6.226v.374c3.483.124 6.718-.996 6.718-7.097V11.58l1.12-.872-.25-.25-.995.747-3.1-2.615-3.483 2.615V.996h-.25L18.41 3.985v.25c.498.25 1.244.498 1.244 1.868l-.124 14.07zm22.765-1.37l-3.1 2.366-3.1-2.5v-1.494l5.847-3.985v-.125l-2.986-4.483-6.47 3.487v8.218l-1.244.996.25.25 1.12-.872 4.23 3.113L42.42 19.3l-.124-.498zm-6.22-2.117v-6.1l.25-.124 2.737 4.358-2.986 1.868zM66.055 2.5c0-.374-.124-.747-.25-1.12h-.25c-.373.996-.87 1.494-2.115 1.494-1.12 0-1.866-.623-2.364-1.12l-3.608 4.11.25.25 1.244-1.12c.746.623 1.368 1.12 3.1 1.245V16.56l-7.34-12.576c-.622-.996-1.493-2.366-3.234-2.366-2 0-3.732 1.743-3.483 4.483h.373c.124-.747.498-1.62 1.368-1.62.622 0 1.244.623 1.617 1.245v4.11c-2.24 0-3.732.996-3.732 2.864 0 .996.498 2.5 2 2.864v-.25c-.25-.25-.373-.498-.373-.872 0-.623.498-1.12 1.368-1.12h.622v5.23c-2.612 0-4.727 1.494-4.727 3.985 0 2.366 2 3.486 4.23 3.362v-.25c-1.368-.125-2-.747-2-1.62 0-1.12.746-1.62 1.742-1.62s1.866.622 2.488 1.37l3.608-3.985-.25-.25-.87.996c-1.368-1.245-2.115-1.62-3.732-1.868V6.226L61.7 23.658h.746V6.226c1.866-.125 3.608-1.62 3.608-3.736zm9.08 16.312l-3.1 2.366-3.1-2.5v-1.494l5.847-3.985v-.125l-2.986-4.483-6.47 3.487v8.218l-1.244.996.25.25 1.12-.872 4.23 3.113L75.26 19.3l-.124-.498zm-6.22-2.117v-6.1l.25-.124 2.737 4.358-2.986 1.868zM95.413 9.96l-.87.623-2.364-1.992-2.737 2.5 1.12 1.12v9.34l-2.986-1.868v-7.72l.995-.623-2.86-2.74-2.737 2.5 1.12 1.12v8.965l-.373.25-2.612-1.868v-7.47c0-1.743-.87-2.24-1.866-2.864-.87-.623-1.368-.996-1.368-1.868 0-.747.746-1.12 1.12-1.37v-.25c-.995 0-3.608.996-3.608 3.362 0 1.245.622 1.743 1.244 2.366s1.244 1.12 1.244 2.24v7.222l-1.368.996.25.25 1.244-.996 2.86 2.5 3.1-2.117 3.483 2.117 6.593-3.86v-8.343l1.617-1.245-.25-.25zm23.138-6.848l-1.244 1.12-2.737-2.5-4.105 2.988v-2.74h-.373l.124 20.172c-.373 0-1.493-.25-2.363-.498l-.25-16.8c0-1.245-.87-2.988-3.1-2.988s-3.732 1.743-3.732 3.487h.373c.125-.747.498-1.37 1.244-1.37s1.368.498 1.368 2.117v4.856c-2.24.125-3.607 1.37-3.607 2.99 0 .996.498 2.5 2 2.5v-.25c-.497-.25-.622-.623-.622-.872 0-.747.622-.996 1.617-.996h.498v7.72c-1.866.623-2.612 1.992-2.612 3.486 0 2.117 1.617 3.61 4.105 3.61 1.74 0 3.234-.25 4.727-.623 1.244-.25 2.86-.623 3.607-.623.996 0 1.37.498 1.37 1.12 0 .872-.373 1.245-.87 1.37v.25c2-.373 3.234-1.62 3.234-3.486s-1.866-2.988-3.856-2.988c-.995 0-3.1.374-4.603.623-1.74.373-3.483.623-3.98.623-.87 0-1.866-.374-1.866-1.62 0-.996.87-1.868 2.985-1.868 1.12 0 2.488.125 3.857.498 1.492.373 2.86.747 4.105.747 1.866 0 3.483-.623 3.483-3.238V4.607l1.493-1.245-.25-.25zm-5.1 7.596c-.373.373-.87.747-1.492.747s-1.244-.374-1.493-.747V5.23l1.244-.872 1.74 1.62v4.732zm0 3.736c-.248-.25-.87-.623-1.492-.623a2.38 2.38 0 0 0-1.493.623v-3.237a2.38 2.38 0 0 0 1.493.623c.622 0 1.244-.374 1.492-.623v3.237zm0 5.852c0 .996-.622 1.992-2 1.992h-.995v-7.346a2.38 2.38 0 0 1 1.493-.623c.622 0 1.12.374 1.492.623v5.354zm17.043-8.84l-3.98-2.864-6.095 3.487v8.094l-1.244.996.124.25.995-.747 3.98 2.988 6.22-3.736v-8.467zm-6.718 7.845v-8.965l3.1 2.24v8.84l-3.1-2.117zM142.31 8.84h-.25c-.373.25-.746.498-1.12.498-.497 0-1.12-.25-1.368-.623h-.25l-2.115 2.366-2.114-2.366-3.732 2.5.124.25.995-.623 1.244 1.37v7.845l-1.617 1.245.25.25.746-.623 2.986 2.5 3.856-2.615-.124-.25-1.12.623-1.493-1.245v-8.716c.622.623 1.37 1.245 2.24 1.245 1.74.125 2.736-1.62 2.86-3.61zm14.927 11.954l-4.23 2.864-5.722-8.716 4.105-6.35h.25c.497.498 1.243.996 2.114.996s1.493-.498 1.866-.996h.25c-.124 2.5-1.866 3.985-3.1 3.985s-1.866-.623-2.612-.996l-.373.623 6.22 9.214 1.244-.747v.125zm-13.683-.623l-1.617 1.245.248.25.747-.622 2.736 2.5 3.732-2.5-.248-.25-.996.623-1.244-1.245V.996h-.124l-4.478 2.988v.25c.497.25 1.244.374 1.244 1.868v14.07zm34.333-16.56c0-2.5-2.363-3.113-4.23-3.113v.374c1.12 0 2 .374 2 1.245 0 .498-.373 1.245-1.493 1.245-.87 0-2.736-.498-4.105-.996-1.617-.498-3.1-.996-4.354-.996-2.488 0-4.23 1.868-4.23 3.985 0 1.868 1.368 2.5 1.866 2.74l.124-.25c-.373-.25-.746-.498-.746-1.245 0-.498.497-1.37 1.74-1.37 1.12 0 2.613.498 4.603 1.12 1.742.498 3.608.872 4.603.996v3.86l-1.866 1.62v.124l1.866 1.62v5.354c-.995.623-2.115.747-3.1.747-1.866 0-3.483-.498-4.852-1.992l5.1-2.5V7.47l-6.22 2.74c.622-1.62 2-2.74 3.234-3.61l-.124-.25c-3.732.996-7.09 4.358-7.09 8.592 0 4.98 4.105 8.716 8.708 8.716 4.976 0 8.2-3.985 8.2-8.094h-.25c-.746 1.62-1.866 3.113-3.234 3.86V14.32l2-1.62v-.124l-1.866-1.62V7.222c1.866 0 3.732-1.245 3.732-3.61zm-10.822 13.697l-1.493.747c-.87-1.12-1.368-2.615-1.368-4.732 0-.872.124-1.868.373-2.615l2.612-1.12-.124 7.72zm15.176-14.942h-.124l-2.488 2.117v.125l2.115 2.366h.248l2.488-2.117v-.125l-2.24-2.366zm3.732 18.43l-.995.623-1.244-1.245V11.58l1.244-.872-.25-.25-.87.747-2.24-2.615-3.607 2.5.25.374.87-.623 1.12 1.37v8.094l-1.617 1.245.124.25.87-.623 2.737 2.5 3.732-2.5-.125-.374zm20.775-.125l-.87.623-1.37-1.245V11.58l1.244-.996-.248-.25-.996.872-2.86-2.615-3.732 2.615-2.86-2.615-3.483 2.615-2.24-2.615-3.608 2.5.125.374.87-.623 1.244 1.37v8.094l-.996.996 2.862 2.366 2.736-2.5-1.12-1.12V11.58l1.12-.747 1.866 1.743v7.47l-.995.996 2.86 2.366 2.737-2.5-1.12-1.12V11.58l.996-.623 2 1.743v7.47l-.87.872 2.86 2.615 3.857-2.615v-.374zm10.822-1.868l-3.1 2.366-3.1-2.5v-1.494l5.847-3.985v-.125l-2.986-4.483-6.468 3.487v8.467l4.354 3.113 5.598-4.483-.125-.374zm-6.22-2.117v-6.1l.25-.124 2.737 4.358-2.986 1.868zm17.54-1.12l-2.363-1.868c1.617-1.37 2.24-3.237 2.24-4.483v-.747h-.25c-.25.623-.746 1.245-1.74 1.245s-1.618-.498-2.24-1.245l-5.597 3.113v4.483l2.114 1.62c-2.114 1.868-2.488 3.113-2.488 4.11 0 1.245.622 2.117 1.618 2.5l.124-.25c-.25-.25-.498-.374-.498-.996 0-.373.498-.996 1.493-.996 1.244 0 2 .872 2.364 1.245l5.35-3.238v-4.483h-.125zm-1.368-3.735c-.87 1.494-2.737 2.988-3.856 3.736l-1.37-1.12v-4.358c.498 1.245 1.866 2.24 3.235 2.24.87 0 1.368-.124 2-.498zm-2.115 9.96c-.622-1.37-2.115-2.366-3.607-2.366-.374 0-1.37 0-2.364.623.622-.996 2.24-2.74 4.354-3.985l1.493 1.245.124 4.483z" fill="#306"/></svg>