<svg xmlns="http://www.w3.org/2000/svg" width="177" height="22" fill="none"><g clip-path="url(#A)" fill="#306"><path d="M12.028 10.32c1.124-1.062 1.84-2.57 1.84-4.247a5.83 5.83 0 0 0-1.84-4.247C11.006.867 9.644.285 7.533.285H.008V21.04h3.984v-9.18h1.43l7.355 9.18h4.903l-7.73-9.52c.85-.274 1.532-.685 2.077-1.2zM9.304 7.683c-.34.377-.85.616-2 .616H3.992V3.847h3.303c1.158 0 1.67.274 2 .65s.58.993.58 1.6a2.55 2.55 0 0 1-.579 1.575zM24.386 11.7h6.334V8.128h-6.334v-4.28h8.377V.285h-12.36V21.04H33.07v-3.562h-8.683V11.7zm13.894 9.34h3.984V11.7H48.6V8.128h-6.334v-4.28h8.377V.285H38.28V21.04zM58.812.285h-3.984V21.04h3.984V.285zm19.993 13.53L67.296.285h-2.792V21.04h3.984V7.512l11.5 13.53H82.8V.285h-3.984v13.53zM92.828 11.7h6.334V8.128h-6.334v-4.28h8.376V.285h-12.36V21.04h12.667v-3.562h-8.683V11.7zm25.912-1.38c1.123-1.062 1.838-2.57 1.838-4.247s-.715-3.185-1.838-4.247c-1.022-.96-2.384-1.54-4.495-1.54h-7.525V21.04h3.984v-9.18h1.43l7.32 9.18h4.937l-7.73-9.52c.85-.274 1.498-.685 2.077-1.2zm-2.758-2.637c-.34.377-.852.616-2 .616h-3.303V3.847h3.303c1.157 0 1.668.274 2 .65s.578.993.578 1.6c.035.582-.204 1.164-.578 1.575zm16.688-.103L128.107.285h-4.53l7.083 11.37v9.384h3.984v-9.384l7.048-11.37h-4.53L132.67 7.58zm22.68 4.6c1.43-1.884 2.248-3.493 2.248-6.062 0-3.802-3.2-6.542-6.742-6.542h-.137c-3.54 0-6.503 2.637-6.742 6.473h3.984c0-1.473 1.294-2.843 2.826-2.843 1.567 0 2.827 1.37 2.827 2.843 0 1.096-.137 2.226-1.635 4.144l-8.853 10.857h15.22V17.4h-7.32l4.324-5.24zm13.3-12.604c-4.018 0-7.32 3.322-7.32 7.432 0 4.247 3.303 7.295 7.22 7.295h.272l-3.916 6.747h4.393l4.87-8.4c1.1-1.884 2.043-3.733 2.043-5.822 0-4.452-3.7-7.26-7.56-7.26zm.102 11.13c-2.043 0-3.712-1.678-3.712-3.733s1.67-3.733 3.712-3.733 3.712 1.678 3.712 3.733-1.67 3.733-3.712 3.733z"/></g><defs><clipPath id="A"><path fill="#fff" d="M0 0h176.213v21.04H0z"/></clipPath></defs></svg>