<svg xmlns="http://www.w3.org/2000/svg" width="234" height="35" fill="none"><path d="M91.352 14.724V27.86h-4.9V14.724h-4.96v-4.18h14.833v4.18h-4.96zm9.985 3.01c-1.013 0-1.58.685-1.73 1.957h3.706c-.224-1.297-.67-1.957-1.977-1.957zm5.88 4.698H99.61c.148 1.42.987 2.054 2.198 2.054 1.136 0 2.075-.245 3.36-.905l1.704 2.814c-1.605.93-3.26 1.468-5.286 1.468-3.904 0-6.053-2.74-6.053-6.68 0-4.427 2.52-6.703 5.93-6.703 3.558 0 5.78 2.324 5.78 7.095l-.025.858zm7.47 5.43c-3.683 0-5.883-2.397-5.883-6.728 0-3.94 1.96-6.655 5.98-6.655 2.367 0 3.73 1.125 4.83 2.936l-2.966 2.3c-.597-1.126-1.005-1.664-1.937-1.664-1.1 0-1.65 1.126-1.65 3.156s.598 3.082 1.77 3.082c.813 0 1.388-.465 2.177-1.663l2.726 2.177c-1.458 2.202-2.822 3.06-5.046 3.06zm15.48 0v-7.4c0-1.7-.558-2.136-1.457-2.136-.924 0-1.483.447-1.483 2.086v7.452h-4.372V11.544l4.372-1.788v5.936c.802-.62 1.7-1.142 3.207-1.142 2.794 0 4.13 1.912 4.13 5.34v7.973h-4.398zm15.277 0c-5.057 0-7.757-3.862-7.757-9.053 0-5.642 3.2-9.053 7.78-9.053 4.183 0 5.837 1.856 7.004 5.166l-4.28 1.73c-.6-1.63-1.192-2.658-2.748-2.658-1.97 0-2.82 2.03-2.82 4.815 0 2.684.826 4.815 2.87 4.815 1.483 0 2.115-.828 3.04-2.483l3.988 2.182c-1.143 2.308-3.04 4.54-7.076 4.54zm18.523-8.165c-.572-.624-1.218-1.098-2.087-1.098-1.095 0-1.765.524-1.765 2.122v7.14h-4.472V14.753h4.472v.95c.77-.75 1.64-1.223 2.784-1.223.944 0 1.6.224 2.112.55l-1.044 4.67zm9.917 7.9v-.875c-.777.624-1.7 1.15-3.182 1.15-2.794 0-4.13-1.922-4.13-5.37v-8.01h4.397v7.44c0 1.697.56 2.146 1.458 2.146s1.457-.45 1.457-2.098v-7.5h4.398v13.1h-4.398zm15.614.274v-7.44c0-1.698-.56-2.147-1.457-2.147-.923 0-1.482.45-1.482 2.097v7.5h-4.373V14.753h4.373v.874c.8-.624 1.7-1.148 3.206-1.148 2.794 0 4.13 1.922 4.13 5.368v8.015h-4.398zm12.622 0c-3.682 0-5.882-2.397-5.882-6.728 0-3.94 1.96-6.655 5.98-6.655 2.368 0 3.732 1.125 4.83 2.936l-2.966 2.3c-.598-1.126-1.004-1.664-1.936-1.664-1.102 0-1.652 1.126-1.652 3.156s.598 3.082 1.77 3.082c.813 0 1.387-.465 2.175-1.663l2.727 2.177c-1.458 2.202-2.822 3.06-5.047 3.06zM51.813 12.905H71.33V2.67H51.813v10.234z" fill-rule="evenodd" fill="#306"/><mask id="A" mask-type="alpha" maskUnits="userSpaceOnUse" x="12" y="2" width="210" height="31"><path d="M12 2.745h210v29.832H12V2.745z" fill="#322e53"/></mask><g mask="url(#A)" fill-rule="evenodd" fill="#306"><path d="M217.532 27.612V20.2c0-1.692-.568-2.14-1.48-2.14-.94 0-1.506.447-1.506 2.1v7.463h-4.443V11.27l4.443-1.8v5.944c.814-.62 1.728-1.144 3.257-1.144 2.84 0 4.198 1.915 4.198 5.347v7.985h-4.468zM12 2.745v9.947h9.87v19.893h9.872V12.7h9.87V2.745H12z"/><path d="M51.484 22.638V12.69h-9.87v19.893h29.613v-9.947H51.484z"/></g></svg>