<svg xmlns="http://www.w3.org/2000/svg" width="169" height="45" fill="none"><path fill-rule="evenodd" d="M41.75 34.935c2.74 3.386 6.974 5.865 11.4 5.865 4.727 0 8.988-2.687 11.8-6.357 2.877-3.768 4.29-8.522 4.29-13.234 0-4.92-1.548-9.907-4.66-13.757-2.7-3.342-6.906-5.85-11.3-5.85-4.77 0-9.057 2.645-11.907 6.344-2.9 3.768-4.288 8.522-4.288 13.25 0 4.92 1.522 9.893 4.645 13.74zM22.007 2.41H8.676v.382h3.508l13.77 37.65L37.79 2.792h3.18V2.41h-7.193v.382h3.302l-8.4 27.238-9.947-27.238h3.274V2.41zm76.426 12.427V1.75h-.3c-.918.685-1.987 1.466-3.18 1.466-.958 0-1.93-.315-2.822-.644l-.782-.302c-1.07-.425-2.206-.78-3.357-.78-2.945 0-5.713 1.3-8 3.07C74.897 8.492 72.5 15.22 72.5 21.51c0 8.603 5.18 18.975 14.906 18.975 2.123 0 3.96-.615 5.88-1.465l.85-.466c.944-.52 2-.905 3.082-.905 1.492 0 2.658.808 3.398 2.04h.26V24.563h2.932v-.396H91.268v.396h3.425v10.113c0 .67-.028 1.328-.384 1.917-1.383 2.26-4.152 3.577-6.754 3.577-3.275 0-5.043-1.547-6.262-4.7-1.74-4.494-2.123-9.44-2.123-14.235 0-5.357.712-19.4 8.55-19.4 3.412 0 6.03 2.986 7.673 5.644 1.383 2.274 2.178 4.782 2.74 7.357h.302zM115.546 2.41h-13.37v.382h3.657v27.704c0 6.88 6.633 9.797 12.648 9.797 5.315 0 10.987-2.645 10.987-8.617V2.792h6.632v36.514h-3.137v.384h26.977V25.51h-.3c-.068 1.37-.18 2.754-.41 4.11-.425 2.425-1.645 4.672-3.398 6.398-2.056 2.027-4.946 3.287-7.852 3.287h-5.603V20.782c.67-.055 1.33-.096 2-.096 4.26 0 5.864 3.89 6.453 7.522h.343V13.013h-.343c-.205 4-1.424 7.234-6.123 7.234-.782 0-1.564-.055-2.33-.137V2.792h3.74c3.466 0 6.837.274 9.316 3.083 2.452 2.78 3.138 6.44 3.536 10.002h.26V2.41h-34.514v.383h4.192v28.774c0 4.508-3.713 7.577-8.125 7.577-4.096 0-8.78-2.768-8.78-7.316V2.793h3.548V2.41zM43.87 21.194c0-5.453 1.92-19.032 9.304-19.032 7.358 0 9.303 13.592 9.303 19.032s-1.945 19.044-9.303 19.045c-7.37 0-9.303-13.592-9.303-19.044z" fill="#306"/></svg>